<svg width="22" height="22" viewBox="0 0 22 22" fill="none" xmlns="http://www.w3.org/2000/svg">
<path d="M11.3224 0.73858C11.273 0.739378 11.2241 0.747848 11.1773 0.763686C10.3699 0.775611 9.57633 0.862202 8.82483 1.05008C8.49888 1.12944 8.17673 1.22972 7.85686 1.3467C7.78022 1.35533 7.70683 1.38246 7.643 1.42573C7.23407 1.57526 6.8372 1.74847 6.46024 1.9483C5.84144 2.26969 5.26186 2.66875 4.71957 3.11246C4.64697 3.14195 4.58277 3.1889 4.53267 3.24915C4.48201 3.29151 4.43135 3.33378 4.38204 3.37933C3.75425 3.93736 3.191 4.56984 2.70739 5.26784C2.56508 5.47245 2.43469 5.68558 2.30942 5.90013C2.25926 5.95658 2.22324 6.02414 2.20434 6.09726C1.65458 7.06993 1.25789 8.14193 1.04855 9.27452C1.01651 9.34152 1.00059 9.41507 1.00206 9.48932C0.974352 9.64395 0.947793 9.79979 0.930459 9.96446C0.881128 10.3764 0.856071 10.7935 0.856071 11.2188C0.856071 11.6442 0.881128 12.0612 0.930459 12.4732C0.947793 12.6379 0.974352 12.7937 1.00206 12.9483C1.00074 13.0223 1.01666 13.0955 1.04855 13.1622C1.2577 14.2943 1.65321 15.3662 2.20248 16.3385C2.22165 16.4125 2.25833 16.4807 2.30942 16.5375C2.43482 16.7523 2.56491 16.9659 2.70739 17.1707C3.19152 17.8694 3.75486 18.4966 4.38018 19.0574C4.42933 19.1028 4.48033 19.1444 4.53081 19.1866L4.53174 19.1876C4.58215 19.2487 4.64703 19.2964 4.7205 19.3261C4.7205 19.3261 4.72143 19.3261 4.72143 19.3261C5.26328 19.7693 5.84205 20.1683 6.46024 20.4893C6.8372 20.6892 7.23407 20.8624 7.643 21.0119C7.70656 21.055 7.77962 21.0822 7.85593 21.0909C8.17608 21.2081 8.4986 21.3081 8.82483 21.3876C9.57633 21.5754 10.3699 21.662 11.1773 21.674C11.2762 21.7074 11.3834 21.7074 11.4823 21.674C12.2897 21.662 13.0833 21.5754 13.8348 21.3876C14.1608 21.3082 14.4829 21.2079 14.8028 21.0909C14.8794 21.0823 14.9528 21.0552 15.0167 21.0119C15.4256 20.8624 15.8224 20.6892 16.1994 20.4893C16.8182 20.168 17.3978 19.7689 17.9401 19.3252C18.0127 19.2957 18.0769 19.2487 18.127 19.1885C18.1782 19.1457 18.2297 19.1034 18.2795 19.0574C18.9048 18.4966 19.4681 17.8694 19.9523 17.1707V17.1698C20.0946 16.9652 20.225 16.7521 20.3502 16.5375C20.4004 16.4811 20.4364 16.4135 20.4553 16.3404C21.0051 15.3677 21.4018 14.2957 21.6111 13.1631C21.6431 13.0961 21.6591 13.0226 21.6576 12.9483C21.6853 12.7937 21.7119 12.6379 21.7292 12.4732C21.7785 12.0612 21.8036 11.6442 21.8036 11.2188C21.8036 10.7935 21.7785 10.3764 21.7292 9.96446C21.7119 9.79979 21.6853 9.64395 21.6576 9.48932C21.6589 9.41539 21.643 9.34216 21.6111 9.27545C21.402 8.14337 21.0064 7.07147 20.4572 6.09911C20.438 6.02517 20.4013 5.95692 20.3502 5.90013C20.225 5.68558 20.0946 5.47245 19.9523 5.26784V5.26691C19.4687 4.56916 18.9052 3.93721 18.2776 3.37933C18.2289 3.33438 18.1788 3.29285 18.1288 3.25101C18.1285 3.2507 18.1282 3.25039 18.1279 3.25008C18.0775 3.18891 18.0126 3.14128 17.9391 3.11153C17.9388 3.11153 17.9385 3.11153 17.9382 3.11153C17.3964 2.66837 16.8176 2.26937 16.1994 1.9483C15.8224 1.74847 15.4256 1.57526 15.0167 1.42573C14.9531 1.3826 14.88 1.35548 14.8037 1.3467C14.4836 1.22958 14.1611 1.12951 13.8348 1.05008C13.0833 0.862202 12.2897 0.775611 11.4823 0.763686C11.4308 0.746249 11.3767 0.737757 11.3224 0.73858V0.73858ZM7.75458 1.37645C7.75129 1.3776 7.74858 1.37994 7.74528 1.3811C7.7438 1.38167 7.74215 1.38146 7.74063 1.38203L7.75458 1.37645ZM14.9051 1.37645L14.919 1.38203C14.9175 1.38146 14.9159 1.38167 14.9144 1.3811C14.9111 1.37994 14.9084 1.37761 14.9051 1.37645ZM10.8537 1.7549V3.65828C10.3971 3.68717 9.93926 3.71513 9.50826 3.82007C9.50795 3.82007 9.50764 3.82007 9.50733 3.82007C9.39725 3.84707 9.28989 3.88785 9.18096 3.91957L8.53007 2.13334C8.70347 2.08 8.87023 2.01871 9.05264 1.97434C9.05357 1.97403 9.0545 1.97372 9.05543 1.97341C9.62726 1.83044 10.2401 1.78612 10.8537 1.7549ZM11.8059 1.7549C12.4196 1.78612 13.0324 1.83045 13.6042 1.97341C13.6051 1.97372 13.6061 1.97403 13.607 1.97434C13.7894 2.01871 13.9562 2.08 14.1296 2.13334L13.4787 3.91957C13.3698 3.88785 13.2624 3.84707 13.1523 3.82007C13.152 3.82007 13.1517 3.82007 13.1514 3.82007C12.7204 3.71514 12.2626 3.68717 11.8059 3.65828V1.7549ZM7.63835 2.4653L8.28831 4.25338C8.12159 4.3262 7.95173 4.38807 7.78991 4.47561L7.78898 4.47654C7.53357 4.61102 7.3057 4.79856 7.06463 4.96192C6.96737 4.97473 6.87644 5.01727 6.80428 5.08373L5.60664 3.65735C6.02216 3.34281 6.44188 3.02989 6.90284 2.79074C6.90408 2.79013 6.90532 2.78951 6.90656 2.78888C7.14461 2.66268 7.39271 2.56864 7.63835 2.4653ZM15.0213 2.4653C15.2669 2.56864 15.515 2.66268 15.7531 2.78888C15.7543 2.78951 15.7556 2.79013 15.7568 2.79074C16.2178 3.02989 16.6375 3.34281 17.053 3.65735L15.8554 5.08373C15.7831 5.01761 15.6922 4.9754 15.595 4.96285C15.3538 4.79937 15.1262 4.6111 14.8707 4.47654C14.7085 4.38876 14.5384 4.32637 14.3713 4.25338L15.0213 2.4653ZM4.86741 4.2571L6.09574 5.72067C5.71863 6.08024 5.35683 6.45923 5.05803 6.89227C5.03172 6.93006 5.01163 6.96952 4.98643 7.00757L3.33596 6.05448C3.38782 5.97392 3.43527 5.88866 3.48939 5.81086C3.48939 5.81055 3.48939 5.81024 3.48939 5.80993C3.88687 5.23625 4.36119 4.72814 4.86741 4.2571ZM17.7922 4.2571C18.2985 4.72814 18.7728 5.23625 19.1703 5.80993C19.1703 5.81024 19.1703 5.81055 19.1703 5.81086C19.2244 5.88866 19.2718 5.97392 19.3237 6.05448L17.6732 7.00757C17.648 6.96952 17.6279 6.93006 17.6016 6.89227L17.5998 6.89041C17.3013 6.45819 16.9404 6.07964 16.5639 5.72067L17.7922 4.2571ZM10.8537 4.61044V6.48221C10.1589 6.5517 9.50953 6.77486 8.93455 7.11171L7.82804 5.58956C7.96691 5.5037 8.08779 5.39471 8.23345 5.31805C8.235 5.31713 8.23655 5.3162 8.2381 5.31526C8.47976 5.18419 8.73902 5.07362 9.00336 4.97494C9.03952 4.96574 9.07447 4.95232 9.1075 4.93495C9.30774 4.86147 9.51358 4.79845 9.73421 4.74434L9.73328 4.74527C10.0923 4.65787 10.4744 4.63779 10.8537 4.61044ZM11.8059 4.61044C12.1852 4.63779 12.5674 4.65786 12.9264 4.74527L12.9254 4.74434C13.1464 4.79853 13.3526 4.86133 13.5531 4.93495C13.5867 4.95277 13.6222 4.96651 13.6591 4.97587C13.9224 5.07431 14.1807 5.18465 14.4216 5.31526C14.4231 5.3162 14.4246 5.31713 14.4262 5.31805C14.5719 5.39471 14.6927 5.5037 14.8316 5.58956L13.7251 7.11171C13.1501 6.77486 12.5007 6.5517 11.8059 6.48221V4.61044ZM7.04139 6.12608L8.16557 7.67334C7.66124 8.12402 7.25126 8.67772 6.97444 9.30428L5.16589 8.71476C5.2732 8.4435 5.39115 8.17971 5.53504 7.93276C5.55711 7.90249 5.57552 7.86972 5.5899 7.83513C5.67051 7.69656 5.75234 7.56245 5.84096 7.4353C5.84127 7.43468 5.84158 7.43406 5.84189 7.43344C6.14815 6.98959 6.50885 6.58436 6.90935 6.22836C6.90997 6.22774 6.91059 6.22712 6.91121 6.2265C6.9406 6.20005 6.95738 6.18618 6.97816 6.16885C6.97878 6.16854 6.9794 6.16823 6.98002 6.16792C7.00153 6.15559 7.02205 6.1416 7.04139 6.12608V6.12608ZM15.6183 6.12608C15.6371 6.14088 15.657 6.15425 15.6778 6.16606C15.6992 6.18379 15.7175 6.19867 15.7484 6.2265C15.7491 6.22712 15.7497 6.22774 15.7503 6.22836C16.1508 6.58436 16.5115 6.98959 16.8178 7.43344C16.8181 7.43406 16.8184 7.43468 16.8187 7.4353C16.9075 7.56266 16.989 7.69724 17.0697 7.83606C17.0843 7.87134 17.103 7.90474 17.1255 7.93555C17.1258 7.93586 17.1262 7.93617 17.1265 7.93648C17.2686 8.18077 17.3867 8.44349 17.4965 8.71383L15.6852 9.30428C15.4084 8.67772 14.9984 8.12402 14.4941 7.67334L15.6183 6.12608ZM2.87941 6.88948L4.52988 7.84164C4.41981 8.06371 4.29775 8.28077 4.21188 8.51298V8.51391C4.18694 8.57773 4.17841 8.64921 4.15515 8.71383C4.11658 8.76312 4.08809 8.81954 4.07134 8.87985C4.05459 8.94016 4.04989 9.00318 4.05752 9.06531C4.02055 9.18661 3.98485 9.3084 3.95431 9.4326L2.07603 9.10157C2.2515 8.32353 2.52206 7.58269 2.87941 6.88948ZM19.7802 6.88948C20.1376 7.58269 20.4081 8.32353 20.5836 9.10157L18.7072 9.4326C18.6766 9.30585 18.6404 9.18113 18.6031 9.05694C18.6156 8.93732 18.5824 8.8174 18.5101 8.72127C18.486 8.65365 18.4786 8.57985 18.4524 8.51298C18.364 8.28167 18.2423 8.06316 18.1316 7.84071L19.7802 6.88948ZM11.274 7.41298C11.3123 7.41765 11.351 7.41765 11.3893 7.41298C12.1635 7.42486 12.8808 7.66401 13.4759 8.06945C13.5231 8.12566 13.5826 8.17021 13.6498 8.19963C14.2244 8.64124 14.6667 9.24256 14.9144 9.93936C14.9206 10.015 14.9449 10.088 14.985 10.1523C15.0832 10.4909 15.1385 10.8479 15.1385 11.2188C15.1385 11.5891 15.0828 11.9454 14.985 12.2835C14.9446 12.3484 14.9203 12.422 14.9144 12.4983C14.667 13.1942 14.2253 13.7947 13.6516 14.2362C13.5836 14.2659 13.5234 14.3111 13.4759 14.3682C12.8798 14.7743 12.1612 15.0135 11.3856 15.0247C11.3473 15.02 11.3086 15.02 11.2703 15.0247C9.63749 14.9996 8.26326 13.9558 7.74528 12.4983C7.73902 12.4227 7.71479 12.3497 7.67461 12.2853C7.57648 11.9468 7.52119 11.5898 7.52119 11.2188C7.52119 10.8485 7.5768 10.4922 7.67461 10.1542C7.71507 10.0893 7.73931 10.0156 7.74528 9.93936C8.26366 8.48074 9.63958 7.4365 11.274 7.41298ZM17.7774 9.62321C17.8096 9.75406 17.8613 9.87718 17.8852 10.0119C17.8878 10.0488 17.8946 10.0853 17.9057 10.1207C17.9205 10.2205 17.9354 10.3178 17.9457 10.4099C17.9457 10.4111 17.9457 10.4123 17.9457 10.4136C17.9769 10.6774 17.9949 10.9492 17.9949 11.2188C17.9949 11.4884 17.977 11.7602 17.9457 12.0241C17.9457 12.0253 17.9457 12.0265 17.9457 12.0278C17.9354 12.1204 17.9206 12.2182 17.9057 12.3188C17.8949 12.3533 17.888 12.3888 17.8852 12.4248C17.8612 12.5598 17.8097 12.6833 17.7774 12.8144L15.98 12.2296C16.0509 11.9034 16.0906 11.5659 16.0906 11.2188C16.0906 10.8718 16.0509 10.5343 15.98 10.2081L17.7774 9.62321ZM4.88415 9.62414L6.67968 10.2081C6.60871 10.5343 6.56903 10.8718 6.56903 11.2188C6.56903 11.5659 6.60871 11.9034 6.67968 12.2296L4.88415 12.8135C4.85128 12.6829 4.79831 12.5586 4.77443 12.4248C4.77179 12.3882 4.76493 12.352 4.75397 12.317C4.73918 12.2171 4.72422 12.1198 4.71399 12.0278C4.714 12.0265 4.714 12.0253 4.71399 12.0241C4.68269 11.7602 4.66471 11.4884 4.66471 11.2188C4.66471 10.9492 4.68269 10.6774 4.71399 10.4136C4.714 10.4123 4.714 10.4111 4.71399 10.4099C4.72428 10.3172 4.73907 10.2194 4.75397 10.1188C4.76472 10.0847 4.77158 10.0494 4.77443 10.0137C4.79834 9.87967 4.85121 9.75505 4.88415 9.62414ZM1.88169 10.0342L3.76462 10.3662C3.73378 10.6443 3.71255 10.9297 3.71255 11.2188C3.71255 11.508 3.73378 11.7933 3.76462 12.0715L1.88169 12.4034C1.88059 12.3936 1.87808 12.3835 1.87704 12.3737C1.87675 12.3712 1.87644 12.3687 1.87611 12.3662C1.83081 11.9903 1.80823 11.6098 1.80823 11.2188C1.80823 10.8278 1.83081 10.4474 1.87611 10.0714C1.87644 10.0689 1.87675 10.0664 1.87704 10.064C1.87808 10.0541 1.88058 10.044 1.88169 10.0342ZM20.778 10.0342C20.7791 10.044 20.7816 10.0541 20.7826 10.064C20.7829 10.0664 20.7832 10.0689 20.7835 10.0714C20.8288 10.4474 20.8514 10.8278 20.8514 11.2188C20.8514 11.6098 20.8288 11.9903 20.7835 12.3662C20.7832 12.3687 20.7829 12.3712 20.7826 12.3737C20.7816 12.3835 20.7791 12.3936 20.778 12.4034L18.895 12.0715C18.9259 11.7933 18.9471 11.508 18.9471 11.2188C18.9471 10.9297 18.9259 10.6443 18.895 10.3662L20.778 10.0342ZM3.95431 13.005C3.98492 13.1295 4.02045 13.2517 4.05752 13.3733C4.04237 13.4984 4.07748 13.6245 4.15515 13.7238C4.17841 13.7884 4.18695 13.8599 4.21188 13.9237V13.9247C4.29775 14.1569 4.41981 14.3739 4.52988 14.596L2.87941 15.5482C2.52206 14.8549 2.2515 14.1141 2.07603 13.3361L3.95431 13.005ZM18.7072 13.005L20.5836 13.3361C20.4081 14.1141 20.1376 14.8549 19.7802 15.5482L18.1316 14.5969C18.2423 14.3745 18.364 14.156 18.4524 13.9247C18.4787 13.8575 18.4859 13.7833 18.5101 13.7154C18.5826 13.6191 18.6158 13.4988 18.6031 13.3788C18.6402 13.2552 18.6768 13.1312 18.7072 13.005ZM6.97444 13.1334C7.25126 13.7599 7.66124 14.3136 8.16557 14.7643L7.04139 16.3116C7.02258 16.2968 7.00269 16.2834 6.98188 16.2716C6.96045 16.2538 6.94214 16.239 6.91121 16.2111C6.91059 16.2105 6.90997 16.2099 6.90935 16.2093C6.50885 15.8533 6.14815 15.4481 5.84189 15.0042C5.84158 15.0036 5.84127 15.003 5.84096 15.0023C5.75219 14.875 5.67063 14.7404 5.5899 14.6016C5.57536 14.5663 5.55663 14.5329 5.53411 14.5021C5.53411 14.5018 5.53411 14.5015 5.53411 14.5012C5.39101 14.2552 5.27273 13.993 5.16589 13.7229L6.97444 13.1334ZM15.6852 13.1334L17.4965 13.7238C17.3862 13.9952 17.2674 14.2588 17.1246 14.5039C17.1025 14.5345 17.0841 14.5676 17.0697 14.6025C16.9891 14.7411 16.9073 14.8752 16.8187 15.0023C16.8184 15.003 16.8181 15.0036 16.8178 15.0042C16.5115 15.4481 16.1508 15.8533 15.7503 16.2093C15.7497 16.2099 15.7491 16.2105 15.7484 16.2111C15.7191 16.2376 15.7023 16.2515 15.6815 16.2688C15.681 16.2692 15.6801 16.2693 15.6796 16.2697C15.6581 16.282 15.6376 16.296 15.6183 16.3116L14.4941 14.7643C14.9984 14.3136 15.4084 13.7599 15.6852 13.1334ZM8.93455 15.3259C9.50953 15.6628 10.1589 15.8859 10.8537 15.9554V17.8272C10.4744 17.7999 10.0923 17.7798 9.73328 17.6924L9.73421 17.6933C9.51328 17.6391 9.30706 17.5763 9.10657 17.5027C9.073 17.4849 9.03741 17.4711 9.00057 17.4618C8.73718 17.3633 8.47891 17.253 8.2381 17.1224C8.23655 17.1214 8.235 17.1205 8.23345 17.1196C8.08779 17.0429 7.96691 16.9339 7.82804 16.8481L8.93455 15.3259ZM13.7251 15.3259L14.8316 16.8481C14.6927 16.9339 14.5719 17.0429 14.4262 17.1196C14.4246 17.1205 14.4231 17.1214 14.4216 17.1224C14.1799 17.2535 13.9206 17.364 13.6563 17.4627C13.6201 17.4719 13.5852 17.4853 13.5521 17.5027C13.3519 17.5762 13.1461 17.6392 12.9254 17.6933L12.9264 17.6924C12.5674 17.7798 12.1852 17.7999 11.8059 17.8272V15.9554C12.5007 15.8859 13.1501 15.6628 13.7251 15.3259ZM4.98643 15.4301C5.01211 15.4688 5.03306 15.5087 5.05989 15.5472C5.35833 15.9794 5.71926 16.358 6.09574 16.717L4.86741 18.1805C4.36003 17.7056 3.88599 17.2001 3.48939 16.6277C3.48939 16.6274 3.48939 16.6271 3.48939 16.6268C3.43527 16.549 3.38782 16.4637 3.33596 16.3832L4.98643 15.4301ZM17.6732 15.4301L19.3237 16.3832C19.2718 16.4637 19.2244 16.549 19.1703 16.6268C19.1703 16.6271 19.1703 16.6274 19.1703 16.6277C18.7737 17.2001 18.2996 17.7056 17.7922 18.1805L16.5639 16.717C16.9404 16.358 17.3013 15.9794 17.5998 15.5472L17.6016 15.5454C17.6279 15.5076 17.648 15.4681 17.6732 15.4301ZM6.80428 17.3539C6.87644 17.4204 6.96737 17.4629 7.06463 17.4757C7.3057 17.6391 7.53357 17.8266 7.78898 17.9611L7.78991 17.962C7.95173 18.0496 8.12159 18.1114 8.28831 18.1843L7.63835 19.9723C7.39271 19.869 7.14461 19.775 6.90656 19.6488C6.90532 19.6481 6.90408 19.6475 6.90284 19.6469C6.44185 19.4077 6.02216 19.0948 5.60664 18.7803L6.80428 17.3539ZM15.8554 17.3548L17.053 18.7803C16.6375 19.0948 16.2178 19.4078 15.7568 19.6469C15.7556 19.6475 15.7543 19.6481 15.7531 19.6488C15.515 19.775 15.2669 19.869 15.0213 19.9723L14.3713 18.1843C14.5381 18.1114 14.7079 18.0496 14.8697 17.962L14.8707 17.9611C15.1261 17.8266 15.3539 17.6391 15.595 17.4757C15.6922 17.4632 15.7831 17.421 15.8554 17.3548ZM9.18096 18.5181C9.28989 18.5498 9.39725 18.5906 9.50733 18.6176C9.50764 18.6176 9.50795 18.6176 9.50826 18.6176C9.93926 18.7225 10.3971 18.7505 10.8537 18.7794V20.6827C10.2401 20.6515 9.62728 20.6072 9.05543 20.4642C9.0545 20.4639 9.05357 20.4636 9.05264 20.4633C8.87023 20.4189 8.70347 20.3576 8.53007 20.3043L9.18096 18.5181ZM13.4787 18.5181L14.1296 20.3043C13.9562 20.3576 13.7894 20.4189 13.607 20.4633C13.6061 20.4636 13.6051 20.4639 13.6042 20.4642C13.0324 20.6072 12.4196 20.6515 11.8059 20.6827V18.7794C12.2626 18.7505 12.7204 18.7225 13.1514 18.6176C13.1517 18.6176 13.152 18.6176 13.1523 18.6176C13.2624 18.5906 13.3698 18.5498 13.4787 18.5181ZM7.74063 21.0556C7.74211 21.0562 7.74376 21.0559 7.74528 21.0565C7.74856 21.0577 7.75127 21.06 7.75458 21.0612L7.74063 21.0556ZM14.919 21.0556L14.9051 21.0612C14.9084 21.06 14.9111 21.0577 14.9144 21.0565C14.9158 21.056 14.9175 21.0562 14.919 21.0556Z" fill="#FEFAFA"/>
</svg>
