<svg xmlns="http://www.w3.org/2000/svg" width="90" height="90" fill="none"><path fill="#fff" d="M72 33.8h-5.4L68.2 15v-.1c0-.5-.3-1-.7-1.2H41a1.3 1.3 0 0 0 0 2.4h24.5L63.1 45l-.7 7.3H18.6l.7-7.6h8.4a1.3 1.3 0 1 0 0-2.5h-8.1l1.5-16h13.3a1.3 1.3 0 1 0 0-2.5h-13L22 16h14a1.3 1.3 0 0 0 0-2.5H20.9c-.6 0-1 .4-1.2 1v.1l-.9 9H3.5a1.3 1.3 0 1 0 0 2.5h15l-1.5 16h-4.5a1.3 1.3 0 1 0 0 2.5h4.3l-.9 8.7L14.6 67v.5l.4.5.3.2h.1l.1.1h6a9.6 9.6 0 0 0 19 0h20.3a9.6 9.6 0 0 0 19 0H86a1.6 1.6 0 0 0 .2-.2h.1v-.1h.1v-.1h.1a1.3 1.3 0 0 0 .2-.3V67.2l1.5-13.5c.2-1.5.2-2.8.2-3.5 0-9-7.3-16.4-16.4-16.4Zm-5.6 2.5h5.1l-.6 7.6h-5.2l.7-7.6ZM31 74a7.1 7.1 0 1 1 0-14.2 7.1 7.1 0 0 1 0 14.2Zm39.3 0a7.1 7.1 0 1 1 0-14.2 7.1 7.1 0 0 1 0 14.2Zm14-8.4H80a9.6 9.6 0 0 0-19 0H40.5a9.6 9.6 0 0 0-19 0h-4.3l1-10.9H64l.1-.1h.1v-.1h.1a1.2 1.2 0 0 0 .3-.2 1.3 1.3 0 0 0 .1-.2V54l.1-.1V53.7l.7-7.3H72c3.9 0 5.6 2 7.5 4.1 1.5 1.8 3.2 3.7 6.1 4.2l-1.2 11Zm1.5-13.5c-1.9-.4-3-1.7-4.4-3.3-1.8-2-3.9-4.5-8-5l.7-7.5a14 14 0 0 1 11.7 15.8Z"/><path fill="#fff" d="M31 62.4a4.6 4.6 0 1 0 0 9.2 4.6 4.6 0 0 0 0-9.2Zm0 6.7a2.1 2.1 0 1 1 0-4.2 2.1 2.1 0 0 1 0 4.2ZM70.3 62.4a4.6 4.6 0 1 0 0 9.2 4.6 4.6 0 0 0 0-9.2Zm0 6.7a2.1 2.1 0 1 1 0-4.2 2.1 2.1 0 0 1 0 4.2ZM14.2 33.8H8a1.3 1.3 0 1 0 0 2.5h6.2a1.3 1.3 0 1 0 0-2.5Z"/></svg>